<?xml version="1.0" encoding="utf-8"?>
<!-- Generator: Adobe Illustrator 25.0.1, SVG Export Plug-In . SVG Version: 6.00 Build 0)  -->
<svg version="1.1" id="Layer_1" xmlns="http://www.w3.org/2000/svg" xmlns:xlink="http://www.w3.org/1999/xlink" x="600px" y="800px"
	 viewBox="0 0 600 800" style="enable-background:new 0 0 600 800;" xml:space="preserve">
<style type="text/css">
	.st0{fill:#003B48;}
	.st1{fill:#0089C0;}
	.st2{fill:#FFFFFF;}
	.st3{fill:none;stroke:#FFFFFF;stroke-width:0.5;}
	.st4{fill:#6DCEF5;}
	.st5{fill:#F58742;}
	.st6{clip-path:url(#SVGID_2_);fill:#FFE191;}
	.st7{clip-path:url(#SVGID_2_);fill:#FBB338;}
	.st8{clip-path:url(#SVGID_2_);fill:none;stroke:#FFFFFF;stroke-width:4.3919;}
	.st9{clip-path:url(#SVGID_2_);fill:#FFFFFF;}
	.st10{clip-path:url(#SVGID_2_);fill:none;stroke:#FFFFFF;stroke-width:0.7594;}
</style>
<g>
	<path class="st0" d="M299.3,748.5c161.3,0,292-130.8,292-292c0-161.3-130.8-292-292-292s-292,130.8-292,292
		C7.3,617.7,138,748.5,299.3,748.5L299.3,748.5z"/>
	<path class="st1" d="M493.1,604.4c0,0-44,17.2-155.1-24.9c0,0-111-55.3-210.6-28c0,0-59.4,17.9-38.9,72.9c0,0,33.4,84.3,162,106.9
		C250.5,731.5,434.6,765.3,493.1,604.4L493.1,604.4z"/>
	<path class="st2" d="M271.2,551.4c-5.2-3.1-9.5-4.3-14.8-4.3c-15.3,0-26,11.4-26,25.4c0,14.1,10.6,25.5,26,25.5
		c5.3,0,9.7-1.2,14.8-4.3l-2.7-4.6c-4,2.4-7.9,3.5-11.9,3.5c-11.9,0-20.2-9.4-20.2-20.2c0-10.5,8.3-19.9,20.2-19.9
		c4.4,0,8.5,1.3,11.9,3.5L271.2,551.4L271.2,551.4z M288.5,572.7c-7.6,0-13.1,5.6-13.1,12.4c0,6.9,5.6,12.5,13.1,12.5
		s13.1-5.6,13.1-12.5C301.7,578.3,296.1,572.7,288.5,572.7L288.5,572.7z M288.5,577.2c4.4,0,7.6,3.6,7.6,8c0,4.4-3.2,8-7.6,8
		c-4.4,0-7.6-3.5-7.6-8C281,580.8,284.1,577.2,288.5,577.2L288.5,577.2z M311.4,582.8c0-3.2,2.8-4.9,5.1-4.9c2.7,0,5,1.4,5,5.3v13.3
		h5.3v-14.9c0-5.2-3.3-8.4-8.1-8.4c-3.3,0-6,1.5-7.4,3.1v-2.5h-5v22.6h5.3V582.8L311.4,582.8z M339.6,573.1
		c-5.6-0.1-7.8,3.5-7.8,6.3c0,2.8,1,4.2,5.6,7.3c3.6,2.3,4.2,3.1,4.2,3.9c0,1-1.2,2.1-3.7,2.1c-1.5,0-2.9-0.6-5.1-1.8l-1.9,4.2
		c2.3,1.3,5,2.2,7.8,2.2c5.3-0.1,8.5-2.9,8.5-6.7c0-2.6-1.3-4.4-6.5-8c-2.4-1.5-3.3-2.2-3.3-3.2c0-1,1-1.8,2.7-1.8
		c1,0,2.4,0.3,3.9,1.1l2.1-4C344.3,573.9,342.1,573.1,339.6,573.1L339.6,573.1z M375.8,593.5l-2.8-3.5c-2.2,1.9-5.1,3.1-8.7,3.1
		c-4.6,0-7.2-2.4-7.7-6.4h19.6v-1.5c0-7.1-5.4-12.4-12.6-12.4c-7.3,0-12.6,5.3-12.6,12.4c0,7.2,5.2,12.5,13.3,12.5
		C369,597.6,373.1,595.8,375.8,593.5L375.8,593.5z M363.7,577.2c3.5,0,5.8,1.9,6.7,5.1H357C357.8,579.2,360.2,577.2,363.7,577.2
		L363.7,577.2z M385.8,584.3c0-1.9,2.3-4.6,5.9-4.6c0.3,0,0.8,0.1,1.1,0.2v-6.1H392c-3.3,0-5.6,3.1-6.5,4.9v-4.9h-5v22.6h5.3V584.3
		L385.8,584.3z M420.1,573.8h-5.5l-7,17.2l-6.9-17.2h-5.8l9.5,22.6h6.3L420.1,573.8L420.1,573.8z M438.2,596.5h4.9v-14.2
		c0-5.1-3.5-9.2-11.1-9.2c-2.6,0-4.3,0.3-7.4,1.1l1,4.2c2.3-0.6,3.9-0.8,5.4-0.8c4.6,0,6.9,1.8,6.9,5.3c-1.7-1.1-4-1.9-6.9-1.9
		c-6.2,0-10.5,3.4-10.5,8.3c0,5.5,4.6,8.4,10.1,8.4c3.4,0,6-1.2,7.6-2.4V596.5L438.2,596.5z M431.8,593.9c-3.7,0-5.8-2-5.8-4.7
		s2.1-4.7,5.8-4.7c3.7,0,6.1,1.9,6.1,4.7C437.9,592.1,435.3,593.9,431.8,593.9L431.8,593.9z M453.9,582.8c0-3.2,2.8-4.9,5.1-4.9
		c2.7,0,5,1.4,5,5.3v13.3h5.3v-14.9c0-5.2-3.3-8.4-8.1-8.4c-3.3,0-6,1.5-7.4,3.1v-2.5h-5v22.6h5.3V582.8L453.9,582.8z M491.8,591.3
		h-0.2c-1.5,1.2-3.5,1.4-5.1,1.4c-4.4,0-7.5-3.3-7.5-7.6c0-4.3,3.1-7.5,7.5-7.5c1.5,0,3.6,0.3,5.1,1.4h0.2l2.1-3.9
		c-1.7-1.2-4.4-2.1-7.3-2.1c-7.5,0-13.1,5.3-13.1,12.1c0,6.8,5.6,12.1,13.1,12.1c3,0,5.6-0.9,7.3-2.1L491.8,591.3L491.8,591.3z
		 M519.6,573.8h-5.5l-6.2,16.5l-7.2-16.5h-5.9l10.6,23l-4.6,12.4h5.4L519.6,573.8L519.6,573.8z"/>
	<path class="st3" d="M271.2,551.4c-5.2-3.1-9.5-4.3-14.8-4.3c-15.3,0-26,11.4-26,25.4c0,14.1,10.6,25.5,26,25.5
		c5.3,0,9.7-1.2,14.8-4.3l-2.7-4.6c-4,2.4-7.9,3.5-11.9,3.5c-11.9,0-20.2-9.4-20.2-20.2c0-10.5,8.3-19.9,20.2-19.9
		c4.4,0,8.5,1.3,11.9,3.5L271.2,551.4L271.2,551.4z M288.5,572.7c-7.6,0-13.1,5.6-13.1,12.4c0,6.9,5.6,12.5,13.1,12.5
		s13.1-5.6,13.1-12.5C301.7,578.3,296.1,572.7,288.5,572.7L288.5,572.7z M288.5,577.2c4.4,0,7.6,3.6,7.6,8c0,4.4-3.2,8-7.6,8
		c-4.4,0-7.6-3.5-7.6-8C281,580.8,284.1,577.2,288.5,577.2L288.5,577.2z M311.4,582.8c0-3.2,2.8-4.9,5.1-4.9c2.7,0,5,1.4,5,5.3v13.3
		h5.3v-14.9c0-5.2-3.3-8.4-8.1-8.4c-3.3,0-6,1.5-7.4,3.1v-2.5h-5v22.6h5.3V582.8L311.4,582.8z M339.6,573.1
		c-5.6-0.1-7.8,3.5-7.8,6.3c0,2.8,1,4.2,5.6,7.3c3.6,2.3,4.2,3.1,4.2,3.9c0,1-1.2,2.1-3.7,2.1c-1.5,0-2.9-0.6-5.1-1.8l-1.9,4.2
		c2.3,1.3,5,2.2,7.8,2.2c5.3-0.1,8.5-2.9,8.5-6.7c0-2.6-1.3-4.4-6.5-8c-2.4-1.5-3.3-2.2-3.3-3.2c0-1,1-1.8,2.7-1.8
		c1,0,2.4,0.3,3.9,1.1l2.1-4C344.3,573.9,342.1,573.1,339.6,573.1L339.6,573.1z M375.8,593.5l-2.8-3.5c-2.2,1.9-5.1,3.1-8.7,3.1
		c-4.6,0-7.2-2.4-7.7-6.4h19.6v-1.5c0-7.1-5.4-12.4-12.6-12.4c-7.3,0-12.6,5.3-12.6,12.4c0,7.2,5.2,12.5,13.3,12.5
		C369,597.6,373.1,595.8,375.8,593.5L375.8,593.5z M363.7,577.2c3.5,0,5.8,1.9,6.7,5.1H357C357.8,579.2,360.2,577.2,363.7,577.2
		L363.7,577.2z M385.8,584.3c0-1.9,2.3-4.6,5.9-4.6c0.3,0,0.8,0.1,1.1,0.2v-6.1H392c-3.3,0-5.6,3.1-6.5,4.9v-4.9h-5v22.6h5.3V584.3
		L385.8,584.3z M420.1,573.8h-5.5l-7,17.2l-6.9-17.2h-5.8l9.5,22.6h6.3L420.1,573.8L420.1,573.8z M438.2,596.5h4.9v-14.2
		c0-5.1-3.5-9.2-11.1-9.2c-2.6,0-4.3,0.3-7.4,1.1l1,4.2c2.3-0.6,3.9-0.8,5.4-0.8c4.6,0,6.9,1.8,6.9,5.3c-1.7-1.1-4-1.9-6.9-1.9
		c-6.2,0-10.5,3.4-10.5,8.3c0,5.5,4.6,8.4,10.1,8.4c3.4,0,6-1.2,7.6-2.4V596.5L438.2,596.5z M431.8,593.9c-3.7,0-5.8-2-5.8-4.7
		s2.1-4.7,5.8-4.7c3.7,0,6.1,1.9,6.1,4.7C437.9,592.1,435.3,593.9,431.8,593.9L431.8,593.9z M453.9,582.8c0-3.2,2.8-4.9,5.1-4.9
		c2.7,0,5,1.4,5,5.3v13.3h5.3v-14.9c0-5.2-3.3-8.4-8.1-8.4c-3.3,0-6,1.5-7.4,3.1v-2.5h-5v22.6h5.3V582.8L453.9,582.8z M491.8,591.3
		h-0.2c-1.5,1.2-3.5,1.4-5.1,1.4c-4.4,0-7.5-3.3-7.5-7.6c0-4.3,3.1-7.5,7.5-7.5c1.5,0,3.6,0.3,5.1,1.4h0.2l2.1-3.9
		c-1.7-1.2-4.4-2.1-7.3-2.1c-7.5,0-13.1,5.3-13.1,12.1c0,6.8,5.6,12.1,13.1,12.1c3,0,5.6-0.9,7.3-2.1L491.8,591.3L491.8,591.3z
		 M519.6,573.8h-5.5l-6.2,16.5l-7.2-16.5h-5.9l10.6,23l-4.6,12.4h5.4L519.6,573.8L519.6,573.8z"/>
	<path class="st4" d="M383.9,663.5c0,0-42.4-3.4-107.8-31.5c0,0-64.9-35.7-125.2-23.6c0,0-32.7,6-25.7,40.4c0,0,19.2,55.1,94.6,67.3
		C244.3,720,326.4,732.5,383.9,663.5L383.9,663.5z"/>
	<path class="st0" d="M270.1,613.8l-7.3,5.9l8.7,0.6c0,0-7.7,17.6-39.1,29.6c0,0,5.2,12.9,0.9,16.8c0,0-13.1-2-8.1-14.5l-4.4,0.6
		c0,0,1.2,12.8-6.9,19.9c0,0-13.6-11.1-4.3-19.6c0,0-10,1.4-18.2-0.3c0,0,0.7,9.7-9.9,14.4c0,0-4-12.8,1.5-15.2
		c0,0-11.5-11.6-30.9-4.6c0,0-5.3,15.7-27.5,19.2c0,0,29.3-25.7-7-39.7c0,0,8-3.7,31.9,5.8c0,0,10.7-0.2,39.9-12.9l-10.5-8.6
		c0,0,22.1-3.8,33.2,2.1c0,0,23.1-5.3,43.6-4.7L270.1,613.8L270.1,613.8z"/>
	<path class="st0" d="M165.6,688.5c0,0,0.9-4.3,6.6-6.3c5.6-2,5.1-0.7,5.1-0.7l0.7-2.4c0,0,2.1-0.7,4.9,2c0,0,8.1-1.2,14.4-0.1
		c0,0,0.8-3.9,3.8-6.7c0,0,1.9,8.6,4.6,11.3L197,684c0,0-9,2.8-12.3,5.2l1.1,3.3c0,0-5.5,0.2-7.8-2.4
		C178,690.2,171.4,691.5,165.6,688.5L165.6,688.5z"/>
	<path class="st0" d="M176.5,603.5c0,0-1.8-2.3-6-1.9c-4.2,0.4-3.5,1-3.5,1l-1.1-1.2c0,0-1.6,0.2-2.6,2.5c0,0-5.5,1.6-9.3,3.9
		c0,0-1.6-2.1-4.3-3c0,0,1.2,5.7,0.1,8.1l5.1-3.3c0,0,6.5-0.8,9.4-0.3l0.2,2.3c0,0,3.6-1.4,4.4-3.6C169,608,173.6,606.9,176.5,603.5
		L176.5,603.5z"/>
	<path class="st5" d="M299,179.9c-149.2,0-270.1,121.6-270.1,271.6c0,1.5,0,2.9,0.1,4.3c14.1-12.2,24.2-19.4,65.5-26
		c49.1-7.9,113.3,11.5,125.2,14.1c11.9,2.6,150.2,47.2,242.8,3.9c79.4-37.1,99.5-70.1,72.1-129.5C488.2,235.8,400.1,179.9,299,179.9
		L299,179.9z"/>
	<g>
		<defs>
			<path id="SVGID_1_" d="M299,179.9c-149.2,0-270.1,121.6-270.1,271.6c0,1.5,0,2.9,0.1,4.3c14.1-12.2,24.2-19.4,65.5-26
				c49.1-7.9,113.3,11.5,125.2,14.1c11.9,2.6,150.2,47.2,242.8,3.9c79.4-37.1,99.5-70.1,72.1-129.5
				C488.2,235.8,400.1,179.9,299,179.9L299,179.9z"/>
		</defs>
		<clipPath id="SVGID_2_">
			<use xlink:href="#SVGID_1_"  style="overflow:visible;"/>
		</clipPath>
		<path class="st6" d="M445.8,465.4c0-86.2-65.5-156-146.4-156c-80.8,0-146.4,69.8-146.4,156 M370.2,465.4c0,43.1-32.8,78-73.1,78
			c-40.4,0-73.1-34.9-73.1-78c0-43.1,32.8-78,73.1-78C337.4,387.4,370.2,422.3,370.2,465.4L370.2,465.4z"/>
		<path class="st7" d="M506,462.7c0-122.7-93.3-222.1-208.4-222.1c-115.1,0-208.4,99.4-208.4,222.1 M159.6,461.7
			c0-82,62.4-148.5,139.3-148.5c76.9,0,139.3,66.5,139.3,148.5"/>
		<line class="st8" x1="9.4" y1="468.2" x2="586.4" y2="468.2"/>
		<path class="st9" d="M297.6,557.2c46.4,0,84.1-40.1,84.1-89.7c0-49.5-37.7-89.7-84.1-89.7c-46.4,0-84.1,40.1-84.1,89.7
			C213.5,517.1,251.1,557.2,297.6,557.2L297.6,557.2z"/>
		<path class="st10" d="M297.6,557.2c46.4,0,84.1-40.1,84.1-89.7c0-49.5-37.7-89.7-84.1-89.7c-46.4,0-84.1,40.1-84.1,89.7
			C213.5,517.1,251.1,557.2,297.6,557.2L297.6,557.2z"/>
	</g>
	<path class="st1" d="M325.5,87.8c-15.6,20.4-17.4,30.6-17.4,30.6c-9.5,20.9-3.5,36.9-3.5,36.9c-9.1-7.1-9.9-8.2-13-16.7
		c-3.1-8.5-0.5-38.8-0.5-38.8c-22.4,17.7-11.7,37.8-11.7,37.8c0.9,10.9-4,8.7-4,8.7c-1.9-14-8.7-16.7-8.7-16.7L256,154.9
		c1.7-5.4-6.3-6.4-6.3-6.4c-7.3,11.8-5.5,19.9-5.5,19.9c-7.4-1.8-8.8,1.7-8.8,1.7c0.8,7.9,3.6,7.4,3.6,7.4l-6.9,6.3l5.3,3.2
		l-8.3,8.6c5.3,3.2,3.3,7.6,3.3,7.6l-9.4,2.5c0.8,7.9-9.8,19.8-9.8,19.8c12.8,0.2,11.9,4.3,11.9,4.3c-13.7,2.5-20.5,6.2-20.5,6.2
		l2.5,13.2l-16.8,22l6.5,1.6c-10.1,8.2-9.5,10.3-9.5,10.3l3.3-0.3c3.5-5.9,2.4-0.2,2.4-0.2l-2.4,0.2c-1.2,2-2.8,5.3-5.2,10.5
		c-9.5,20.9,2.6,26.8,2.6,26.8l-2,4.5l116.4-12.9c-14.8-14.3,5.9-43.3,5.9-43.3c-6.7-10.4,5.3-28.7,5.3-28.7
		c14.5-15.8,12.4-35.7,12.4-35.7s-6.3-6.4-1.2-30.3c5.1-23.9,22.5-68,22.5-68c-22.5,27.5-27.9,44-29.1,51.9h-0.1
		c-0.1-2.8-0.4-6.8-0.9-12.8C316,127,325.5,87.8,325.5,87.8L325.5,87.8z M184.7,328l1.5-3.4l-9,1C179.9,325.8,182.7,326.5,184.7,328
		L184.7,328z M164.8,327l12.4-1.4C171.1,325.2,164.8,327,164.8,327L164.8,327z"/>
	<path class="st0" d="M141.5,284.2c0.3,2.7,1,7.2,2.5,14.2c5.9,28.1,23.6,31.6,23.6,31.6l2.4,10.5c-10.6-4-22.4,4.7-22.4,4.7
		l-57.2,16.6c-5.1,6.6,5.3,16.1,5.3,16.1c-11.8,3.5-16.5,9.4-16.5,9.4h14.2L86,410.5c7.1,1.2,18.7-4.5,18.7-4.5s35.8-16.6,59.4-28.9
		c23.6-12.3,35.8-15,35.8-15"/>
	<path class="st0" d="M342.1,300.8c-9.4-4.7-13-11.7-13-11.7l-43.6-3.3c-27.1-12.9-27.1-54.1-27.1-54.1
		c-15.3-10.5-16.5-36.3-16.5-36.3c3.5-23.4-14.2-46.8-14.2-46.8s-11.8-5.9-24.8-36.3c-13-30.4-28.3-89-28.3-89
		c-3.2,40.6,3.9,62.2,8.8,71.9c0,0,0,0,0,0h0c0,0,0,0,0,0c-2.3-3.3-5.8-8.2-11.2-15.7C157,58.5,136.9,8.2,136.9,8.2
		c-1.2,29.3,4.7,42.1,4.7,42.1c5.9,28.1,24.8,45.6,24.8,45.6c-15.3-5.9-17.1-7-27.1-16.4c-10-9.4-30.7-46.8-30.7-46.8
		C98,60.8,125.1,81.9,125.1,81.9c9.4,12.9,2.4,11.7,2.4,11.7c-13-16.4-22.4-17.6-22.4-17.6l8.3,33.9c-2.4-7-11.8-5.9-11.8-5.9
		c1.2,16.4,9.4,25.8,9.4,25.8c-9.4,0-8.3,4.7-8.3,4.7c7.1,9.4,10.6,3.5,10.6,3.5l-3.5,14l8.3,2.3l-2.4,12.9c8.3,2.3,9.4,8.2,9.4,8.2
		l-8.3,5.9c7.1,9.4,4.7,26.9,4.7,26.9c14.2-3.5,16.2,1.6,16.2,1.6c-14.8,3.9-18.3,10.9-18.3,10.9l13.9,17.9l-1.2,31.6h8.3
		c-4.7,12.9-2.4,15.2-2.4,15.2l3.4-1.4l58.3,77.9c5-2.5,33.8-5.2,33.8-5.2c38.9-2.3,47.2-17.6,47.2-17.6l21.2-14
		c20.1-1.2,28.3-5.9,28.3-5.9l10.6-4.7c7.1,1.2,8.3,5.9,8.3,5.9C352.7,299.6,342.1,300.8,342.1,300.8L342.1,300.8z"/>
	<path class="st0" d="M465.8,397.4L407,417.6l-0.2-1.5c0,0-21.9-1.9-38.1,15.2l-3.1-2c0,0-9.1,5.2-12.1,10.3l-8.3,2.2l-1.6-2.2
		l-1.6-1.2c0,0-0.5-2.3-1.8-2.2c-1.3,0-1.1-0.5-1.1-0.5l-1.3-9.8l-1.3-1l-0.7-2l3.3,0.4l0.2-1.8c0,0,10.3,0.3,22.2-6.4l3.4-16.1
		l0.1-9l-1.1-2.7l11.9-12c0,0,2.8,1.8,2-1.8l8.2-7.7c0,0,1.5-1.8,3.9-1.6c0,0,24-16,24-20.5c0,0-0.7-4-6.8-3.1
		c0,0-10.5-0.8-19.6,19.4l-3.2,3.8l-8,7.4c0,0-2.6-1-2.2,1.5l-11.2,11.3c0,0-1.1-1.2-3.7,0.8l-3.9,2.3c0,0-0.2,1,0.7,2.8l-20.3,18.9
		c0,0-2.6,1.1-4-2.7c0,0,0.8-3.8-1-6.5c0,0,1.1-2.5,0.8-6.3c0,0,0.8-5.3-2.7-6.2l-3.3-2.5c0,0-7.5-0.5-9.8,5.4c0,0-0.4,2.6-1,4.3
		c0,0-2.1,3.1,0.1,7c0,0-3.3,6.8-0.9,9.1c0,0-5.9-0.4-7,2.6l0,1.9c0,0-3.7,0.7-6.9,14.3c0,0-3.2,10.6-4.9,12.4c0,0-3.2,3.3-2.1,7.1
		c0,0-29.3,13.3-36.8,23.3c-7.5,9.9,25.7,2.6,29.6-0.8c1.4-1.2,2.4-3,3.1-4.7h8.1v0c23.9,2.3,145.1,0.8,145.1,0.8
		s4.8-45.1,24.1-62.7C466.4,404.5,471.8,398.8,465.8,397.4L465.8,397.4z M307.2,448.2c0,0-1.3,0.9-1.1,2.2c0,0-4.1,1.9-11.6,2.5
		l6.8-6.8l1,0.6c0,0,1.1,0.3,0.6-1c0,0,1.6,0.7,1.3-0.5l1.1-1.4c0,0,0.9,0.7,1.2-0.6c0,0,0,0.8,0.4,0.7
		C306.8,444,306.2,447,307.2,448.2L307.2,448.2z M338.5,411.3l19.2-18.2l0.6,1.3c0.5,1.3,2,0.4,2,0.4l-0.3,2.8l-1.4,4.7l-3.2,6.2
		c-1.2,2.1-1.8,1.5-1.8,1.5c-2,0.3-5.4,1-5.4,1c-4.5,1.3-6.2,0.9-6.2,0.9C341.5,411.4,338.5,411.3,338.5,411.3L338.5,411.3z"/>
	<path class="st2" d="M79.9,465.8c-4.5-2.2-9.6-3.3-14.9-3.3c-21.1,0-36.9,16-36.9,35.8c0,19.9,15.7,36,36.9,36
		c5.3,0,10.5-1.1,14.9-3.3v-12.7c-4.1,2.6-8.9,4-14.2,4c-13.8,0-24.4-11.1-24.4-24c0-12.7,10.6-23.7,24.4-23.7
		c5.2,0,10.1,1.4,14.2,4V465.8L79.9,465.8z M99.3,500.9c0-7.3,6.4-11.3,11.6-11.3c6.1,0,11.3,3.2,11.3,12.2v30.4h12.2v-34.1
		c0-11.9-7.6-19.2-18.6-19.2c-7.6,0-13.6,3.4-17,7.1v-24.3H87.1v70.5h12.2V500.9L99.3,500.9z M195.7,525.3l-7.3-7.7
		c-4,4-9.6,6.8-17.6,6.8c-10.6,0-16.5-5.8-17.6-15.1h43.1v-3.1c0-16.4-11.9-28.6-28-28.6c-16.2,0-28.1,12.1-28.1,28.6
		c0,16.4,12,28.6,30.6,28.6C182.6,534.8,190,530.5,195.7,525.3L195.7,525.3z M168.3,488c7.6,0,12.7,4.5,14.5,11.8h-29
		C155.5,492.6,160.7,488,168.3,488L168.3,488z M219,478.5c-13.1-0.1-18.4,7.1-18.4,13.8c0,6.4,2.1,10.2,12.7,17.2
		c8.5,5.4,9.9,7.4,9.9,9.1c0,2.6-2.3,4.9-7.9,4.9c-3,0-8.1-1.3-13.6-4.1v10.8c4.5,2,10.8,3.6,15.4,3.6c11.8-0.1,19-6.1,19-15.1
		c0-5.9-3.1-10.9-15.5-18.9c-5.1-3.3-7.2-5.1-7.2-7c0-2.6,2.4-4.2,6.6-4.2c2.8,0,6.8,0.9,10.7,2.9v-10.8
		C227.5,479.4,223.5,478.5,219,478.5L219,478.5z M271.8,532.1h11.1v-35.1c0-11.3-6.9-18.3-21.8-18.3c-5.1,0-8.5,0.4-14.6,1.6
		l0.4,10.3c6.3-1.2,9.3-1.6,12.8-1.6c7.4-0.1,11,2.6,11,11.7v2.3c-3.1-2.1-7.2-3.4-12.4-3.4c-11.7,0-18.9,7.7-18.9,17.2
		c0,10,7.4,17.2,17.1,17.2c6.8,0,11.8-2.7,15.3-6.2V532.1L271.8,532.1z M261.4,526.3c-5.6,0-9.2-4.4-9.2-9.8c0-5,3.6-9.1,9.2-9.1
		c5.7,0,9.4,4.2,9.4,9.1C270.8,521.9,266.8,526.3,261.4,526.3L261.4,526.3z M323.3,533.8c15,0,26.4-12.6,26.4-27.8
		c0-15.3-11.4-27.5-26.4-27.5c-8.6,0-15.9,3.3-20.9,8.8v-7h-11.6V552h12.2v-26.5C308,530.6,315.2,533.8,323.3,533.8L323.3,533.8z
		 M302.7,506.2c0-9,7.4-17,17.3-17c9.8,0,16.9,8,16.9,17.1c0,9.1-7,16.9-16.9,16.9C310.1,523.2,302.7,515.3,302.7,506.2L302.7,506.2
		z M409.2,525.3l-7.3-7.7c-4,4-9.6,6.8-17.6,6.8c-10.6,0-16.5-5.8-17.6-15.1h43.1v-3.1c0-16.4-11.9-28.6-28-28.6
		c-16.2,0-28.1,12.1-28.1,28.6c0,16.4,12,28.6,30.6,28.6C396.1,534.8,403.6,530.5,409.2,525.3L409.2,525.3z M381.8,488
		c7.6,0,12.7,4.5,14.5,11.8h-29C369,492.6,374.2,488,381.8,488L381.8,488z M445.6,532.1h11.1v-35.1c0-11.3-6.9-18.3-21.8-18.3
		c-5.2,0-8.5,0.4-14.6,1.6l0.4,10.3c6.3-1.2,9.3-1.6,12.8-1.6c7.4-0.1,11,2.6,11,11.7v2.3c-3.1-2.1-7.2-3.4-12.4-3.4
		c-11.7,0-18.9,7.7-18.9,17.2c0,10,7.4,17.2,17.1,17.2c6.8,0,11.8-2.7,15.3-6.2V532.1L445.6,532.1z M435.2,526.3
		c-5.6,0-9.2-4.4-9.2-9.8c0-5,3.6-9.1,9.2-9.1c5.7,0,9.4,4.2,9.4,9.1C444.6,521.9,440.6,526.3,435.2,526.3L435.2,526.3z
		 M498.3,532.1h14.8l-22-31.3l20.8-20.6h-15.7l-19.3,19.1v-37.7h-12.2v70.5h12.2V515l5.8-5.7L498.3,532.1L498.3,532.1z M566.8,525.3
		l-7.3-7.7c-4,4-9.6,6.8-17.6,6.8c-10.6,0-16.5-5.8-17.6-15.1h43.1v-3.1c0-16.4-11.9-28.6-28-28.6c-16.2,0-28.1,12.1-28.1,28.6
		c0,16.4,12,28.6,30.6,28.6C553.7,534.8,561.1,530.5,566.8,525.3L566.8,525.3z M539.4,488c7.6,0,12.7,4.5,14.5,11.8h-29
		C526.6,492.6,531.8,488,539.4,488L539.4,488z"/>
</g>
</svg>
